<!-- Generated by IcoMoon.io -->
<svg version="1.1" xmlns="http://www.w3.org/2000/svg" width="56" height="32" viewBox="0 0 56 32">
<title>Logo1</title>
<path fill="#afb1b8" d="M26.289 3.487c0.121 0 0.25 0.011 0.38 0.022l0.037 0.002c0.663 0.046 1.311 0.147 1.859 0.281v-1.502l0.077 0.017c-0.633-0.163-1.287-0.272-1.994-0.323-0.245-0.018-0.507-0.030-0.775-0.037h-0.227c-1.367 0.005-2.692 0.186-3.845 0.496l-0.108 0.023c-1.44 0.369-2.8 0.938-3.976 1.637v14.897l-0.085 0.043c1.204-0.665 2.5-1.184 3.978-1.56l-0.118 0.026c1.076-0.282 2.193-0.461 3.385-0.528h0.044l-0.031 0.001c0.194-0.010 0.389-0.016 0.59-0.017v-1.526l-0.012 0c-1.505 0.020-2.965 0.224-4.234 0.564-0.514 0.133-1.010 0.277-1.476 0.438l-0.531 0.18v-11.614l0.227-0.11-0.089 0.039c1.7-0.821 3.58-1.328 5.606-1.446l-0.001 0c0.008-0.001 0.017-0.001 0.025-0.001s0.017 0 0.024 0.001c0.211-0.010 0.423-0.016 0.632-0.016h0.239c0.11 0.003 0.22 0.005 0.331 0.012h0.072zM28.933 5.023c0.333 0.025 0.678 0.037 1.027 0.037 1.44-0.005 2.833-0.194 4.161-0.544l-0.115 0.026c1.478-0.377 2.773-0.897 3.977-1.562l-0.086 0.043v14.631c-1.176 0.698-2.536 1.268-3.976 1.637l-0.108 0.024c-1.154 0.309-2.479 0.489-3.845 0.495h-0.003c-0.028 0-0.061 0-0.095 0-1.003 0-1.977-0.126-2.906-0.362l0.081 0.018v-14.726c0.226 0.052 0.458 0.1 0.694 0.14 0.326 0.058 0.736 0.109 1.151 0.141l0.044 0.003zM36.379 5.136l-0.531 0.178c-0.321 0.118-0.813 0.269-1.312 0.404l-0.164 0.038c-1.322 0.354-2.84 0.56-4.406 0.566h-0.003c-0.346 0-0.665-0.009-0.973-0.029l-0.423-0.028v11.949l0.364 0.031c0.337 0.030 0.685 0.045 1.035 0.045 1.236-0.005 2.432-0.169 3.571-0.472l-0.098 0.022c1.041-0.264 1.944-0.598 2.801-1.014l-0.087 0.038 0.227-0.109v-11.619z"></path>
<path fill="#afb1b8" d="M18.747 24.092c-0.143-0.148-0.342-0.239-0.563-0.239-0.010 0-0.019 0-0.029 0.001l0.001-0c-0.003-0-0.007-0-0.012-0-0.119 0-0.232 0.024-0.335 0.066l0.006-0.002c-0.202 0.081-0.358 0.239-0.435 0.436l-0.002 0.005c-0.042 0.105-0.062 0.217-0.061 0.329v1.99c-0 0.009-0.001 0.021-0.001 0.032 0 0.136 0.029 0.265 0.081 0.382l-0.002-0.006c0.047 0.102 0.115 0.193 0.199 0.267 0.079 0.067 0.173 0.115 0.273 0.142 0.097 0.027 0.197 0.041 0.297 0.041 0.111 0.001 0.22-0.023 0.321-0.069 0.299-0.133 0.503-0.427 0.504-0.768v-0.223h-0.521v0.177c0 0.004 0 0.008 0 0.012 0 0.059-0.011 0.116-0.032 0.168l0.001-0.003c-0.018 0.044-0.043 0.081-0.075 0.112l-0 0c-0.060 0.046-0.135 0.075-0.217 0.076h-0c-0.009 0.001-0.020 0.002-0.030 0.002-0.087 0-0.165-0.043-0.213-0.108l-0-0.001c-0.044-0.070-0.070-0.155-0.070-0.247 0-0.007 0-0.014 0-0.021l-0 0.001v-1.856c-0.003-0.103 0.019-0.205 0.064-0.297 0.048-0.074 0.13-0.122 0.224-0.122 0.011 0 0.022 0.001 0.032 0.002l-0.001-0c0.003-0 0.006-0 0.010-0 0.091 0 0.172 0.044 0.222 0.112l0.001 0.001c0.054 0.070 0.086 0.159 0.086 0.256 0 0.004-0 0.008-0 0.012v-0.001 0.172h0.515v-0.203c0-0.002 0-0.005 0-0.008 0-0.122-0.023-0.239-0.066-0.346l0.002 0.006c-0.041-0.109-0.1-0.202-0.174-0.281l0 0zM21.838 24.069c-0.159-0.135-0.365-0.217-0.591-0.219h-0c-0.106 0.001-0.211 0.019-0.311 0.056-0.215 0.077-0.384 0.235-0.474 0.437l-0.002 0.005c-0.052 0.121-0.079 0.253-0.076 0.386v1.909c-0.004 0.134 0.023 0.268 0.076 0.391 0.047 0.102 0.115 0.194 0.201 0.267 0.080 0.073 0.173 0.131 0.275 0.168 0.092 0.035 0.199 0.055 0.31 0.055 0.227 0 0.435-0.085 0.593-0.224l-0.001 0.001c0.083-0.075 0.149-0.165 0.196-0.267 0.053-0.123 0.079-0.257 0.076-0.391v-1.91c0-0.005 0-0.011 0-0.017 0-0.133-0.028-0.26-0.079-0.374l0.002 0.006c-0.049-0.109-0.115-0.202-0.196-0.279l-0-0zM21.595 26.643c0.001 0.009 0.001 0.019 0.001 0.029 0 0.097-0.040 0.184-0.104 0.247l-0 0c-0.066 0.055-0.151 0.089-0.245 0.089s-0.179-0.034-0.246-0.090l0.001 0c-0.065-0.062-0.105-0.149-0.105-0.246 0-0.011 0-0.021 0.001-0.031l-0 0.001v-1.91c-0.001-0.009-0.001-0.019-0.001-0.029 0-0.097 0.040-0.184 0.105-0.246l0-0c0.066-0.055 0.151-0.089 0.245-0.089s0.179 0.034 0.246 0.090l-0.001-0c0.065 0.062 0.105 0.15 0.105 0.246 0 0.011-0 0.021-0.001 0.031l0-0.001v1.909zM25.897 27.495v-3.614h-0.5l-0.658 1.913h-0.009l-0.663-1.913h-0.495v3.614h0.516v-2.199h0.009l0.505 1.554h0.258l0.509-1.554h0.009v2.198h0.516zM28.83 24.135c-0.079-0.089-0.18-0.157-0.292-0.198-0.105-0.035-0.227-0.056-0.353-0.056-0.008 0-0.015 0-0.022 0l0.001-0h-0.767v3.613h0.515v-1.411h0.265c0.161 0.007 0.321-0.026 0.465-0.099 0.118-0.067 0.214-0.16 0.281-0.273l0.002-0.003c0.059-0.096 0.1-0.203 0.118-0.315 0.020-0.136 0.029-0.273 0.028-0.411 0.005-0.173-0.012-0.347-0.050-0.516-0.037-0.13-0.102-0.242-0.19-0.332l0 0zM28.565 25.236c-0.002 0.069-0.020 0.134-0.049 0.191l0.001-0.003c-0.030 0.055-0.076 0.099-0.131 0.126l-0.002 0.001c-0.064 0.029-0.138 0.046-0.216 0.046-0.009 0-0.019-0-0.028-0.001l0.001 0h-0.235v-1.229h0.265c0.007-0 0.016-0.001 0.025-0.001 0.075 0 0.147 0.017 0.211 0.047l-0.003-0.001c0.053 0.031 0.095 0.077 0.12 0.132l0.001 0.002c0.028 0.063 0.044 0.132 0.045 0.201v0.24c0 0.084 0.005 0.171 0 0.248h-0.005zM31.27 23.881h-0.422l-0.796 3.614h0.515l0.151-0.776h0.702l0.151 0.776h0.515l-0.816-3.614zM30.794 26.226l0.253-1.31h0.009l0.252 1.31h-0.515zM34.597 26.058h-0.009l-0.777-2.177h-0.495v3.614h0.515v-2.173h0.011l0.787 2.173h0.485v-3.613h-0.515v2.177zM37.743 23.881l-0.414 1.437h-0.011l-0.414-1.437h-0.545l0.707 2.087v1.528h0.515v-1.528l0.707-2.086h-0.546zM17.311 28.516h0.248v0.696h0.168v-0.696h0.247v-0.143h-0.663v0.143zM19.398 28.373l-0.325 0.839h0.179l0.069-0.191h0.335l0.071 0.191h0.184l-0.334-0.839h-0.179zM19.372 28.88l0.114-0.311 0.114 0.311h-0.228zM21.46 28.902h0.194v0.108c-0.054 0.044-0.124 0.070-0.199 0.071h-0c-0.004 0-0.008 0-0.012 0-0.067 0-0.127-0.031-0.166-0.080l-0-0c-0.039-0.056-0.062-0.125-0.062-0.2 0-0.007 0-0.013 0.001-0.020l-0 0.001c0-0.187 0.081-0.28 0.241-0.28 0.005-0.001 0.012-0.001 0.018-0.001 0.083 0 0.152 0.057 0.172 0.133l0 0.001 0.166-0.032c-0.036-0.164-0.154-0.247-0.356-0.247-0.003-0-0.008-0-0.012-0-0.108 0-0.207 0.041-0.282 0.108l0-0c-0.075 0.074-0.122 0.177-0.122 0.291 0 0.011 0 0.022 0.001 0.033l-0-0.001c-0 0.006-0 0.013-0 0.020 0 0.113 0.041 0.216 0.108 0.296l-0.001-0.001c0.074 0.076 0.178 0.124 0.292 0.124 0.009 0 0.018-0 0.027-0.001l-0.001 0c0.004 0 0.009 0 0.013 0 0.132 0 0.253-0.051 0.343-0.134l-0 0v-0.331h-0.364v0.142zM23.566 28.373h-0.17v0.839h0.588v-0.143h-0.418v-0.696zM25.347 28.373h-0.17v0.839h0.17v-0.839zM27.088 28.933l-0.344-0.56h-0.164v0.839h0.157v-0.549l0.337 0.548h0.169v-0.839h-0.156v0.561zM28.662 28.842h0.418v-0.142h-0.418v-0.184h0.45v-0.143h-0.62v0.839h0.637v-0.143h-0.467v-0.227zM32.478 28.703h-0.331v-0.331h-0.168v0.839h0.168v-0.367h0.331v0.367h0.169v-0.839h-0.169v0.331zM34.062 28.842h0.42v-0.142h-0.42v-0.184h0.451v-0.143h-0.619v0.839h0.636v-0.143h-0.467v-0.227zM36.209 28.842c0.146-0.022 0.22-0.1 0.22-0.233 0.001-0.007 0.001-0.015 0.001-0.024 0-0.067-0.033-0.126-0.083-0.163l-0.001-0c-0.062-0.032-0.135-0.050-0.213-0.050-0.011 0-0.023 0-0.034 0.001l0.002-0h-0.356v0.839h0.169v-0.351h0.033c0.004-0 0.009-0 0.014-0 0.033 0 0.065 0.007 0.093 0.020l-0.001-0.001c0.025 0.015 0.045 0.037 0.060 0.061l0.183 0.267h0.201l-0.102-0.164c-0.046-0.082-0.109-0.149-0.184-0.2l-0.002-0.001zM36.039 28.727h-0.124v-0.211h0.133c0.011-0.001 0.023-0.001 0.035-0.001 0.048 0 0.095 0.008 0.139 0.022l-0.003-0.001c0.023 0.020 0.037 0.049 0.037 0.082 0 0.019-0.005 0.037-0.014 0.053l0-0.001c-0.008 0.015-0.019 0.027-0.032 0.037l-0 0c-0.042 0.013-0.090 0.021-0.14 0.021-0.011 0-0.022-0-0.033-0.001l0.001 0zM37.828 28.842h0.418v-0.142h-0.418v-0.184h0.451v-0.143h-0.621v0.839h0.637v-0.143h-0.467v-0.227z"></path>
</svg>
